<?xml version="1.0" encoding="UTF-8"?>
<svg id="Layer_1" xmlns="http://www.w3.org/2000/svg" width="43.3mm" height="43.3mm" version="1.1" viewBox="0 0 122.9 122.9">
  <!-- Generator: Adobe Illustrator 29.5.1, SVG Export Plug-In . SVG Version: 2.1.0 Build 141)  -->
  <path d="M61.4,0C78.4,0,93.8,6.9,104.9,18c11.1,11.1,18,26.5,18,43.4s-6.9,32.3-18,43.4c-11.1,11.1-26.5,18-43.4,18s-32.3-6.9-43.4-18C6.9,93.8,0,78.4,0,61.4S6.9,29.1,18,18C29.1,6.9,44.5,0,61.4,0h0ZM100,22.9c-9.9-9.9-23.5-16-38.6-16s-28.7,6.1-38.6,16c-9.9,9.9-16,23.5-16,38.6s6.1,28.7,16,38.6c9.9,9.9,23.5,16,38.6,16s28.7-6.1,38.6-16c9.9-9.9,16-23.5,16-38.6,0-15.1-6.1-28.7-16-38.6h0Z"/>
  <circle cx="61.4" cy="61.4" r="7.9"/>
</svg>